PathFileType	4	(X/Y/Z)	Patient4_TMGait_0pt7_02_right_22.trc.trc
DataRate	CameraRate	NumFrames	NumMarkers	Units	OrigDataRate	OrigDataStartFrame	OrigNumFrames
90.909090909091	90.909090909091	4	33	mm	90.909090909091	106	       141
Frame#	Time	Sacral			L.Shoulder			Chest			R.Shoulder			Neck			R.ASIS			L.ASIS			R.Thigh.Superior			R.Thigh.Lateral			R.Thigh.Inferior			R.Patella			L.Thigh.Superior			L.Thigh.Lateral			L.Thigh.Inferior			L.Patella			L.Shank.Superior			L.Shank.Lateral			L.Shank.Inferior			R.Shank.Superior			R.Shank.Lateral			R.Shank.Inferior			R.Heel			R.Midfoot.Superior			R.Midfoot.Lateral			R.Toe			L.Heel			L.Midfoot.Lateral			L.Midfoot.Superior			L.Toe			L.Elbow			L.Wrist			R.Elbow			R.Wrist			
		X1	Y1	Z1	X2	Y2	Z2	X3	Y3	Z3	X4	Y4	Z4	X5	Y5	Z5	X6	Y6	Z6	X7	Y7	Z7	X8	Y8	Z8	X9	Y9	Z9	X10	Y10	Z10	X11	Y11	Z11	X12	Y12	Z12	X13	Y13	Z13	X14	Y14	Z14	X15	Y15	Z15	X16	Y16	Z16	X17	Y17	Z17	X18	Y18	Z18	X19	Y19	Z19	X20	Y20	Z20	X21	Y21	Z21	X22	Y22	Z22	X23	Y23	Z23	X24	Y24	Z24	X25	Y25	Z25	X26	Y26	Z26	X27	Y27	Z27	X28	Y28	Z28	X29	Y29	Z29	X30	Y30	Z30	X31	Y31	Z31	X32	Y32	Z32	X33	Y33	Z33	

106	25.625000000000	827.201527097406	1019.436944675764	450.648905226443	1040.716277991742	1430.951113381679	264.538249374375	1132.883410013512	1356.805187278000	431.159858944803	1049.698301583753	1440.975894772001	600.493357058484	1041.114251617115	1496.346488247799	419.223486027896	1048.025558999420	950.032762238353	574.708256087293	1044.134903934041	961.027294241375	300.106251850467	1138.626607656455	792.678088387423	546.122573568108	1109.809569201790	671.080552570725	622.648212450012	1202.455481136140	637.238433645465	544.409758696693	1229.402973074875	524.288522057395	567.356866665566	1081.276766139391	748.153739658636	328.732931867738	986.062126475460	638.126361475212	271.344524264525	1064.331758677274	555.791268215587	336.597155580644	1059.905648980301	487.571052459991	348.247394614963	1033.089166369430	417.540688838642	339.735494741514	942.894429747880	305.057393616631	285.998701400952	986.569028360238	193.228838485256	360.876952431007	1154.399411953473	445.926681673306	575.406752753984	1033.834727143031	405.876007581003	637.324078881931	1019.743961767568	296.654049482204	588.813217423899	818.571720355309	230.887770666798	563.748894711062	990.374203319352	178.508795670040	603.339443652924	880.134861771659	173.719897799547	636.868679606541	1057.518898513812	67.074007172222	628.917046678713	853.323563277930	39.125569738155	398.760292266432	930.548674721808	36.112872317249	320.858008201592	1012.761996102670	96.064792211896	351.087075941720	1142.410529229464	42.468360566594	327.744190040063	1075.719888576086	1090.203115668161	129.734710991493	1228.860186915394	878.532001357176	151.639141548146	969.578420659676	1101.896169085225	723.556052118600	1084.143161186280	867.924419142163	715.881548834332	
107	25.636000000000	826.698533537041	1019.217731935660	450.669710024476	1040.932792434896	1431.227907265300	265.388096077484	1132.773187015112	1356.588768527345	431.913034868230	1049.451362308020	1440.321535221819	601.354006772642	1041.038884728526	1496.163810742680	420.182155500890	1047.740689935655	950.062931753948	574.821682262853	1043.800731765419	960.820998998299	300.085179858736	1139.603618393441	794.537965389790	546.044871684996	1112.217208496811	672.626478244294	622.692401915707	1204.807041321168	639.673130235874	544.134626565457	1233.827986962643	528.222091842816	567.117356077456	1079.453008693056	747.063593832179	328.945186786904	983.121310342503	637.792867945784	271.526937275046	1060.321492218084	554.693709774884	336.897110393541	1055.180338680814	486.562776473548	348.669784417159	1027.991932237177	416.714572432360	340.055443161652	937.070280234259	304.907077602418	286.232294857838	979.624516688902	192.765462941571	361.197300127417	1162.258372539555	447.604695905759	575.737522042349	1044.694140888490	401.417048527457	638.732240208390	1035.723207008318	291.600824285078	590.373060310034	838.146442810358	215.916863820111	567.012385989971	1012.595765425388	171.910755153556	605.523860974391	902.916016806787	161.889895738025	639.738412280986	1085.033673452170	63.669085442789	630.613888644483	845.540269302999	39.071218672829	398.775563976575	922.767927084717	36.107345625221	320.873020699973	1005.014328531337	96.008708640671	351.188728708628	1134.663297326921	42.372252141900	327.736985172089	1083.640660148276	1092.754613880606	128.759488593624	1246.554253185555	888.640521009216	152.687874475163	964.189874497260	1102.205485120672	723.687150717113	1060.002750180980	859.529552584612	722.125099270366	
108	25.647000000000	826.345709105100	1018.981018216073	450.728977386631	1041.243843813262	1431.495220000753	266.354312741658	1132.741204601721	1356.356694517955	432.783412846961	1049.245380580377	1439.655664088618	602.316765267713	1040.981302697986	1495.950534590779	421.259135225349	1047.508080275788	949.977317776189	575.072140187562	1043.648134415680	960.573169183647	300.230282194624	1140.277758477597	795.853070775736	546.176378357932	1113.847104900598	673.652616665035	622.868105591004	1206.308673281684	641.331622924900	544.045226520797	1237.153351630483	531.589365595922	567.064423703335	1077.660390481185	745.930891402355	329.521778712144	980.283310174464	637.454122850057	271.780604600442	1056.250198638287	553.572106254887	337.361587106564	1050.370970114215	485.554813744939	349.188027802043	1022.823141742375	415.886908694503	340.438946970898	931.224489460682	304.745260158667	286.473479482461	972.660783411474	192.305259158677	361.532453309842	1169.358897241768	448.881183623392	576.167324544565	1055.372066711603	396.256849970836	640.222063127586	1052.010281904179	286.140616428754	591.906007806143	858.947166925923	199.966599274798	570.133150344607	1035.690656584334	165.079500992284	607.517859550094	926.933908139065	149.437608458057	642.392359295508	1113.674584103457	60.680308693447	632.084054572511	837.765556777351	39.030369041419	398.773991675476	914.987279040315	36.104802912156	320.882850392802	997.263466882815	95.955567293833	351.294935511608	1126.909368631703	42.289455972083	327.741203373937	1090.801238134788	1095.384006600479	127.955185781895	1263.376049030971	899.550477130484	154.112528990557	959.187145643157	1102.507556371019	723.797952754756	1036.028960329173	852.903350069795	727.965815045892	
109	25.658000000000	826.175217788791	1018.713296890947	450.829787282673	1041.649289661662	1431.737105898541	267.435734413932	1132.793294283082	1356.106377747310	433.775358288938	1049.082335693829	1438.974122218195	603.385453735188	1040.953905649206	1495.700340500107	422.453440257842	1047.348087746261	949.773006332845	575.467482138875	1043.706709363962	960.289709691836	300.546130677280	1140.638857038506	796.571170886013	546.500651210923	1114.677970782021	674.113046848530	623.194850668005	1206.939399742845	642.160940365935	544.154355594356	1239.369528495068	534.334044744634	567.198611352166	1075.911385221546	744.752701838637	330.452092611321	977.541588349116	637.118223311791	272.097140703740	1052.108914729973	552.432838516298	337.968758476641	1045.463373310455	484.558687319178	349.782363830275	1017.572628581767	415.070837994959	340.871000360413	925.349744542126	304.578448732293	286.712960868605	965.683207195858	191.858977085562	361.870411171288	1175.658421079882	449.766020853283	576.690838361289	1065.847308999179	390.522726877827	641.771537990988	1068.520277845976	280.468607560336	593.368285732119	880.965452603100	183.390643613603	573.019542710787	1059.527719438163	158.299978507092	609.254474734274	952.111639025364	136.701187484714	644.744135357952	1143.197944620683	58.414013840342	633.235003990182	830.002342705128	39.012197389768	398.752444869090	907.209262116304	36.108160103097	320.886963945878	989.513376977031	95.905364800186	351.402978710385	1119.149047357323	42.213638179366	327.757057471023	1097.213327577027	1098.012033959128	127.313485152041	1279.239966655851	911.188077581406	155.891969488941	954.461360395110	1102.841332867696	723.930852250605	1012.580134227016	848.064733571567	733.326708930280	
